<mxfile host="Electron" modified="2024-01-11T09:52:04.257Z" agent="Mozilla/5.0 (Windows NT 10.0; Win64; x64) AppleWebKit/537.36 (KHTML, like Gecko) draw.io/22.0.2 Chrome/114.0.5735.289 Electron/25.8.4 Safari/537.36" etag="vIoO4xDd0kBdjmGTsK0t" version="22.0.2" type="device">
  <diagram name="Page-1" id="Ex1frc1PTRXU7MS7A43f">
    <mxGraphModel dx="3769" dy="1813" grid="1" gridSize="10" guides="1" tooltips="1" connect="1" arrows="1" fold="1" page="1" pageScale="1" pageWidth="850" pageHeight="1100" math="0" shadow="0">
      <root>
        <mxCell id="0" />
        <mxCell id="1" parent="0" />
        <mxCell id="gpjOHsNoIxWcmrj4c9FE-68" style="edgeStyle=orthogonalEdgeStyle;orthogonalLoop=1;jettySize=auto;html=1;entryX=0.5;entryY=0;entryDx=0;entryDy=0;curved=1;strokeColor=#3333FF;" parent="1" source="gpjOHsNoIxWcmrj4c9FE-65" target="gpjOHsNoIxWcmrj4c9FE-18" edge="1">
          <mxGeometry relative="1" as="geometry">
            <mxPoint x="-1694.9950000000001" y="-321" as="targetPoint" />
          </mxGeometry>
        </mxCell>
        <mxCell id="gpjOHsNoIxWcmrj4c9FE-65" value="&lt;font color=&quot;#000000&quot; face=&quot;Montserrat&quot;&gt;&lt;span style=&quot;font-size: 18px;&quot;&gt;input number&lt;/span&gt;&lt;/font&gt;" style="shape=parallelogram;perimeter=parallelogramPerimeter;whiteSpace=wrap;html=1;fixedSize=1;fillColor=#0050ef;strokeColor=#001DBC;fontColor=#ffffff;" parent="1" vertex="1">
          <mxGeometry x="-1785.8200000000002" y="-470.0000000000002" width="181.64" height="80.02" as="geometry" />
        </mxCell>
        <mxCell id="gpjOHsNoIxWcmrj4c9FE-3" value="&lt;b&gt;&lt;font style=&quot;font-size: 18px;&quot;&gt;START&lt;/font&gt;&lt;/b&gt;" style="rounded=1;whiteSpace=wrap;html=1;arcSize=50;fillColor=#60a917;strokeColor=#2D7600;fontColor=#ffffff;fontFamily=Montserrat;fontSource=https%3A%2F%2Ffonts.googleapis.com%2Fcss%3Ffamily%3DMontserrat;fontSize=14;" parent="1" vertex="1">
          <mxGeometry x="-1818.4943517615077" y="-660.0000000000002" width="246.9953278792244" height="98.8411335814774" as="geometry" />
        </mxCell>
        <mxCell id="gpjOHsNoIxWcmrj4c9FE-5" style="edgeStyle=orthogonalEdgeStyle;rounded=0;orthogonalLoop=1;jettySize=auto;html=1;entryX=0.5;entryY=0;entryDx=0;entryDy=0;strokeColor=#9933FF;" parent="1" source="gpjOHsNoIxWcmrj4c9FE-3" target="gpjOHsNoIxWcmrj4c9FE-65" edge="1">
          <mxGeometry relative="1" as="geometry" />
        </mxCell>
        <mxCell id="gpjOHsNoIxWcmrj4c9FE-103" value="&lt;font style=&quot;font-size: 14px;&quot; color=&quot;#b08cff&quot;&gt;True&lt;/font&gt;" style="text;html=1;align=center;verticalAlign=middle;whiteSpace=wrap;rounded=0;fontFamily=Montserrat;fontSource=https%3A%2F%2Ffonts.googleapis.com%2Fcss%3Ffamily%3DMontserrat;fontSize=14;fillColor=none;" parent="1" vertex="1">
          <mxGeometry x="-1620.0007441772393" y="-360.9981818181818" width="99.66313576974062" height="47.244545454545474" as="geometry" />
        </mxCell>
        <mxCell id="gpjOHsNoIxWcmrj4c9FE-108" value="&lt;h1&gt;&lt;font color=&quot;#ffffff&quot; face=&quot;Montserrat&quot;&gt;&lt;span style=&quot;font-size: 38px;&quot;&gt;FLOWCHART MENENTUKAN&amp;nbsp;&lt;/span&gt;&lt;/font&gt;&lt;/h1&gt;&lt;h1&gt;&lt;font face=&quot;Montserrat&quot; color=&quot;#ffffff&quot;&gt;&lt;span style=&quot;font-size: 38px;&quot;&gt;LAMPU MENYALA&lt;/span&gt;&lt;/font&gt;&lt;/h1&gt;" style="text;html=1;strokeColor=none;fillColor=none;spacing=5;spacingTop=-20;whiteSpace=wrap;overflow=hidden;rounded=0;fontSize=12;align=center;" parent="1" vertex="1">
          <mxGeometry x="-2118.12" y="-910" width="846.25" height="240" as="geometry" />
        </mxCell>
        <mxCell id="gpjOHsNoIxWcmrj4c9FE-18" value="&lt;font color=&quot;#000000&quot; style=&quot;font-size: 16px;&quot;&gt;number &amp;gt;=1&amp;nbsp; &amp;amp;&amp;amp; number % 2 === 0&lt;br&gt;&lt;br&gt;&lt;/font&gt;" style="rhombus;whiteSpace=wrap;html=1;fontSize=14;fontFamily=Montserrat;fillColor=#F0A30A;strokeColor=none;fontSource=https%3A%2F%2Ffonts.googleapis.com%2Fcss%3Ffamily%3DMontserrat;align=center;" parent="1" vertex="1">
          <mxGeometry x="-1877.74" y="-350" width="365.48" height="152.73" as="geometry" />
        </mxCell>
        <mxCell id="gpjOHsNoIxWcmrj4c9FE-110" style="edgeStyle=orthogonalEdgeStyle;rounded=1;orthogonalLoop=1;jettySize=auto;html=1;strokeColor=#3333FF;entryX=1;entryY=0.5;entryDx=0;entryDy=0;exitX=0.5;exitY=1;exitDx=0;exitDy=0;" parent="1" source="Z4XvAWwhBEY-yez4vzoz-1" target="gpjOHsNoIxWcmrj4c9FE-8" edge="1">
          <mxGeometry relative="1" as="geometry">
            <mxPoint x="-1337.1660000000002" y="-222.58999999999992" as="sourcePoint" />
            <mxPoint x="-1440" y="49.85000000000002" as="targetPoint" />
            <Array as="points">
              <mxPoint x="-1337" y="-234" />
              <mxPoint x="-1337" y="-170" />
              <mxPoint x="-1420" y="-170" />
              <mxPoint x="-1420" y="-84" />
              <mxPoint x="-1440" y="-84" />
              <mxPoint x="-1440" y="119" />
            </Array>
          </mxGeometry>
        </mxCell>
        <mxCell id="gpjOHsNoIxWcmrj4c9FE-106" style="edgeStyle=orthogonalEdgeStyle;orthogonalLoop=1;jettySize=auto;html=1;curved=1;strokeColor=#3333FF;entryX=0;entryY=0.5;entryDx=0;entryDy=0;exitX=1;exitY=0.5;exitDx=0;exitDy=0;" parent="1" source="gpjOHsNoIxWcmrj4c9FE-18" target="Z4XvAWwhBEY-yez4vzoz-1" edge="1">
          <mxGeometry relative="1" as="geometry">
            <mxPoint x="-1602.26" y="-265" as="sourcePoint" />
            <mxPoint x="-1388.955" y="-273.635" as="targetPoint" />
          </mxGeometry>
        </mxCell>
        <mxCell id="gpjOHsNoIxWcmrj4c9FE-70" style="edgeStyle=orthogonalEdgeStyle;rounded=0;orthogonalLoop=1;jettySize=auto;html=1;strokeColor=#3333FF;" parent="1" source="gpjOHsNoIxWcmrj4c9FE-18" edge="1">
          <mxGeometry relative="1" as="geometry">
            <mxPoint x="-1695" y="-136" as="targetPoint" />
            <mxPoint x="-1694.9999999999998" y="-209.0030193562302" as="sourcePoint" />
          </mxGeometry>
        </mxCell>
        <mxCell id="gpjOHsNoIxWcmrj4c9FE-102" value="&lt;font style=&quot;font-size: 14px;&quot; color=&quot;#b08cff&quot;&gt;False&lt;/font&gt;" style="text;html=1;align=center;verticalAlign=middle;whiteSpace=wrap;rounded=0;fontFamily=Montserrat;fontSource=https%3A%2F%2Ffonts.googleapis.com%2Fcss%3Ffamily%3DMontserrat;fontSize=14;fillColor=none;" parent="1" vertex="1">
          <mxGeometry x="-1714.3907441772392" y="-209.99818181818176" width="99.66313576974062" height="47.244545454545474" as="geometry" />
        </mxCell>
        <mxCell id="gpjOHsNoIxWcmrj4c9FE-8" value="&lt;b&gt;&lt;font style=&quot;font-size: 18px;&quot;&gt;END&lt;br&gt;&lt;/font&gt;&lt;/b&gt;" style="rounded=1;whiteSpace=wrap;html=1;arcSize=50;fillColor=#76608a;strokeColor=#432D57;fontFamily=Montserrat;fontSource=https%3A%2F%2Ffonts.googleapis.com%2Fcss%3Ffamily%3DMontserrat;fontSize=14;fontColor=#ffffff;" parent="1" vertex="1">
          <mxGeometry x="-1816.6544396145623" y="69.99886641852254" width="246.9953278792244" height="98.8411335814774" as="geometry" />
        </mxCell>
        <mxCell id="L9A9BlmpUqtgZ9lb2Vo1-1" value="Text" style="text;html=1;align=center;verticalAlign=middle;resizable=0;points=[];autosize=1;strokeColor=none;fillColor=none;" parent="1" vertex="1">
          <mxGeometry x="-2275" y="-882" width="50" height="30" as="geometry" />
        </mxCell>
        <mxCell id="ENjBnRYwbt-f-_yHgYhD-2" value="&lt;font color=&quot;#000000&quot; face=&quot;Montserrat&quot;&gt;&lt;span style=&quot;font-size: 18px;&quot;&gt;Lampu Tidak Menyala&lt;/span&gt;&lt;/font&gt;" style="shape=parallelogram;perimeter=parallelogramPerimeter;whiteSpace=wrap;html=1;fixedSize=1;fillColor=#e51400;strokeColor=#B20000;fontColor=#ffffff;" parent="1" vertex="1">
          <mxGeometry x="-1783.98" y="-140.00000000000023" width="181.64" height="80.02" as="geometry" />
        </mxCell>
        <mxCell id="ENjBnRYwbt-f-_yHgYhD-5" style="edgeStyle=orthogonalEdgeStyle;rounded=0;orthogonalLoop=1;jettySize=auto;html=1;strokeColor=#3333FF;exitX=0.5;exitY=1;exitDx=0;exitDy=0;entryX=0.5;entryY=0;entryDx=0;entryDy=0;" parent="1" source="ENjBnRYwbt-f-_yHgYhD-2" target="gpjOHsNoIxWcmrj4c9FE-8" edge="1">
          <mxGeometry relative="1" as="geometry">
            <mxPoint x="-1695.18" y="23" as="targetPoint" />
            <mxPoint x="-1695.1799999999998" y="-50.0030193562302" as="sourcePoint" />
          </mxGeometry>
        </mxCell>
        <mxCell id="Z4XvAWwhBEY-yez4vzoz-1" value="&lt;font color=&quot;#000000&quot; face=&quot;Montserrat&quot;&gt;&lt;span style=&quot;font-size: 18px;&quot;&gt;Lampu Menyala&lt;/span&gt;&lt;/font&gt;" style="shape=parallelogram;perimeter=parallelogramPerimeter;whiteSpace=wrap;html=1;fixedSize=1;fillColor=#008a00;strokeColor=#005700;fontColor=#ffffff;" vertex="1" parent="1">
          <mxGeometry x="-1400" y="-313.6400000000002" width="181.64" height="80.02" as="geometry" />
        </mxCell>
      </root>
    </mxGraphModel>
  </diagram>
</mxfile>
